<?xml version="1.0" standalone="no"?>
<!DOCTYPE svg PUBLIC "-//W3C//DTD SVG 20010904//EN"
 "http://www.w3.org/TR/2001/REC-SVG-20010904/DTD/svg10.dtd">
<svg version="1.0" xmlns="http://www.w3.org/2000/svg"
 width="250.000000pt" height="250.000000pt" viewBox="0 0 250.000000 250.000000"
 preserveAspectRatio="xMidYMid meet">
<metadata>
Created by potrace 1.11, written by Peter Selinger 2001-2013
</metadata>
<g transform="translate(0.000000,250.000000) scale(0.100000,-0.100000)"
fill="#000000" stroke="none">
<path d="M1200 1935 c-123 -32 -196 -104 -231 -225 -18 -66 -21 -932 -2 -1013
25 -112 75 -177 171 -224 51 -24 68 -27 162 -27 84 0 116 5 160 22 86 34 144
97 176 192 16 50 18 96 18 515 0 253 -3 478 -6 500 -16 126 -115 233 -238 260
-57 13 -162 12 -210 0z m179 -224 c42 -32 46 -80 46 -538 -1 -411 -2 -430 -21
-463 -43 -74 -155 -74 -198 0 -20 33 -20 52 -20 480 -1 474 1 493 48 523 42
28 106 27 145 -2z"/>
<path d="M88 1918 c-2 -7 -4 -337 -4 -733 l1 -720 115 0 115 0 0 310 0 310
125 2 c68 1 127 -2 130 -6 3 -5 5 -147 5 -315 l0 -306 117 0 118 0 0 735 0
735 -114 0 c-82 0 -115 -3 -118 -12 -2 -7 -4 -147 -4 -311 1 -165 -2 -301 -7
-304 -6 -4 -170 -7 -232 -4 -20 1 -20 7 -19 304 0 166 -2 308 -4 315 -3 8 -35
12 -112 12 -77 0 -109 -4 -112 -12z"/>
<path d="M1735 1825 l0 -105 30 -1 c16 0 71 -2 120 -2 l90 -2 2 -615 c1 -338
2 -621 2 -627 1 -10 31 -13 116 -13 l115 0 0 513 c-1 281 -1 565 0 629 l0 118
118 -2 117 -2 3 107 3 107 -358 0 -358 0 0 -105z"/>
</g>
</svg>
